<?xml version="1.0" encoding="UTF-8" standalone="no"?>
<!-- Created with Inkscape (http://www.inkscape.org/) -->

<svg
   xmlns:dc="http://purl.org/dc/elements/1.1/"
   xmlns:cc="http://creativecommons.org/ns#"
   xmlns:rdf="http://www.w3.org/1999/02/22-rdf-syntax-ns#"
   xmlns:svg="http://www.w3.org/2000/svg"
   xmlns="http://www.w3.org/2000/svg"
   xmlns:sodipodi="http://sodipodi.sourceforge.net/DTD/sodipodi-0.dtd"
   xmlns:inkscape="http://www.inkscape.org/namespaces/inkscape"
   width="205.28571"
   height="245.76126"
   id="svg2"
   version="1.1"
   inkscape:version="0.47 r22583"
   sodipodi:docname="localization_corner.svg">
  <defs
     id="defs4">
    <inkscape:perspective
       sodipodi:type="inkscape:persp3d"
       inkscape:vp_x="0 : 526.18109 : 1"
       inkscape:vp_y="0 : 1000 : 0"
       inkscape:vp_z="744.09448 : 526.18109 : 1"
       inkscape:persp3d-origin="372.04724 : 350.78739 : 1"
       id="perspective10" />
    <inkscape:perspective
       id="perspective2824"
       inkscape:persp3d-origin="0.5 : 0.33333333 : 1"
       inkscape:vp_z="1 : 0.5 : 1"
       inkscape:vp_y="0 : 1000 : 0"
       inkscape:vp_x="0 : 0.5 : 1"
       sodipodi:type="inkscape:persp3d" />
  </defs>
  <sodipodi:namedview
     id="base"
     pagecolor="#ffffff"
     bordercolor="#666666"
     borderopacity="1.0"
     inkscape:pageopacity="0.0"
     inkscape:pageshadow="2"
     inkscape:zoom="1.4"
     inkscape:cx="201.57142"
     inkscape:cy="96.214281"
     inkscape:document-units="px"
     inkscape:current-layer="layer1"
     showgrid="false"
     inkscape:window-width="1267"
     inkscape:window-height="901"
     inkscape:window-x="1369"
     inkscape:window-y="170"
     inkscape:window-maximized="0" />
  <metadata
     id="metadata7">
    <rdf:RDF>
      <cc:Work
         rdf:about="">
        <dc:format>image/svg+xml</dc:format>
        <dc:type
           rdf:resource="http://purl.org/dc/dcmitype/StillImage" />
        <dc:title></dc:title>
      </cc:Work>
    </rdf:RDF>
  </metadata>
  <g
     inkscape:label="Layer 1"
     inkscape:groupmode="layer"
     id="layer1"
     transform="translate(-51.642864,-239.95806)">
    <g
       id="g2888"
       transform="matrix(0.55015313,0,0,0.55015313,-42.786993,78.996201)">
      <path
         id="path2842"
         d="m 213.57143,308.07647 85.71428,-12.14286 0.71429,34.28571 -82.85714,5.71429 -3.57143,-27.85714 z"
         style="fill:none;stroke:#000000;stroke-width:1px;stroke-linecap:butt;stroke-linejoin:miter;stroke-opacity:1" />
      <path
         id="path2844"
         d="M 182.85714,332.36218 185,365.93361 310.71429,370.21932 310,341.6479 182.85714,332.36218 z"
         style="fill:none;stroke:#000000;stroke-width:1px;stroke-linecap:butt;stroke-linejoin:miter;stroke-opacity:1" />
      <path
         id="path2846"
         d="m 247.85714,369.50504 0,14.28571 1.42857,348.57143 11.42858,0.71429 L 260,368.79075 l -12.14286,0.71429 z"
         style="fill:none;stroke:#000000;stroke-width:1px;stroke-linecap:butt;stroke-linejoin:miter;stroke-opacity:1" />
      <path
         id="path2848"
         d="m 172.14286,513.79075 77.14285,60 -0.71428,30 -74.28572,10.71429"
         style="fill:none;stroke:#000000;stroke-width:1px;stroke-linecap:butt;stroke-linejoin:miter;stroke-opacity:1" />
      <path
         id="path2850"
         d="m 260.71429,585.21932 21.42857,15.71429 -20.71429,1.42857"
         style="fill:none;stroke:#000000;stroke-width:1px;stroke-linecap:butt;stroke-linejoin:miter;stroke-opacity:1" />
      <path
         id="path2852"
         d="m 173.57143,709.50504 7.85714,-2.14286 65.71429,-14.28571 0,0"
         style="fill:none;stroke:#000000;stroke-width:1px;stroke-linecap:butt;stroke-linejoin:miter;stroke-opacity:1" />
      <path
         id="path2856"
         d="m 543.57143,658.79075 -52.14286,-24.28571 51.42857,-13.57143"
         style="fill:none;stroke:#000000;stroke-width:1px;stroke-linecap:butt;stroke-linejoin:miter;stroke-opacity:1" />
      <path
         id="path2858"
         d="m 544.28571,562.36218 -7.85714,1.42857 L 399.28571,581.6479 375,569.50504"
         style="fill:none;stroke:#000000;stroke-width:1px;stroke-linecap:butt;stroke-linejoin:miter;stroke-opacity:1" />
      <path
         id="path2860"
         d="M 324.28571,545.21932 261.42857,514.50504"
         style="fill:none;stroke:#000000;stroke-width:1px;stroke-linecap:butt;stroke-linejoin:miter;stroke-opacity:1" />
      <path
         id="path2862"
         d="m 247.14286,508.07647 -75,-35"
         style="fill:none;stroke:#000000;stroke-width:1px;stroke-linecap:butt;stroke-linejoin:miter;stroke-opacity:1" />
      <path
         id="path2864"
         d="m 259.28571,331.6479 0,7.85714 -12.14285,-1.42857 0.71428,-2.85715 11.42857,-3.57142 z"
         style="fill:none;stroke:#000000;stroke-width:1px;stroke-linecap:butt;stroke-linejoin:miter;stroke-opacity:1" />
      <path
         id="path2866"
         d="m 247.14286,300.93361 4.28571,-7.85714 5,1.42857 1.42857,5"
         style="fill:none;stroke:#000000;stroke-width:1px;stroke-linecap:butt;stroke-linejoin:miter;stroke-opacity:1" />
      <path
         sodipodi:nodetypes="cccccccccccccccccccccccccccccccccccccccccc"
         id="path2872"
         d="M 336.42857,538.07647 315,548.79075 305,591.6479 297.85714,623.79075 310,627.36218 l 10,-50 3.57143,18.57143 -7.14286,37.85714 5,5 -0.71428,33.57143 0,40.71429 -7.14286,0 -0.71429,2.14286 10.71429,10.71428 10.71428,-2.14286 1.42858,-45 5.71428,-35.71428 10,35.71428 2.85714,49.28572 8.57143,0 3.57143,-5 10,-9.28572 -13.57143,-2.14285 2.85715,-33.57143 -1.42858,-40 2.14286,-7.85714 -5,-56.42858 10.71429,46.42858 2.85714,13.57142 0,10e-6 4.28571,-1.42858 L 380,621.6479 377.85714,600.21932 370,548.07647 350.71429,536.6479 l 7.14285,-10 0,-13.57143 -10,-9.28572 -10.71428,3.57143 -5,11.42857 5,11.42857 -0.71429,7.85715 z"
         style="fill:none;stroke:#000000;stroke-width:1px;stroke-linecap:butt;stroke-linejoin:miter;stroke-opacity:1" />
      <path
         id="path2874"
         d="m 262.14286,691.6479 29.28571,-5.71429 27.14286,-6.42857 0,0"
         style="fill:none;stroke:#000000;stroke-width:1px;stroke-linecap:butt;stroke-linejoin:miter;stroke-opacity:1" />
      <path
         id="path2876"
         d="m 338.57143,676.6479 9.28571,-2.14286"
         style="fill:none;stroke:#000000;stroke-width:1px;stroke-linecap:butt;stroke-linejoin:miter;stroke-opacity:1" />
      <path
         id="path2878"
         d="m 367.14286,680.21933 82.14285,58.57142"
         style="fill:none;stroke:#000000;stroke-width:1px;stroke-linecap:butt;stroke-linejoin:miter;stroke-opacity:1" />
      <text
         transform="matrix(0.86579877,0.05901415,-0.07836266,1.1496615,0,0)"
         id="text2880"
         y="296.77289"
         x="246.41823"
         style="font-size:17.2819767px;font-style:normal;font-variant:normal;font-weight:normal;font-stretch:normal;fill:#000000;fill-opacity:1;stroke:none;font-family:Interstate Mono;-inkscape-font-specification:Interstate Mono"
         xml:space="preserve"><tspan
           y="296.77289"
           x="246.41823"
           id="tspan2882"
           sodipodi:role="line">LOCALIZATION </tspan></text>
      <text
         inkscape:transform-center-x="19.116694"
         transform="matrix(0.99239809,-0.12306919,0.12306919,0.99239809,0,0)"
         id="text2884"
         y="353.41092"
         x="193.27603"
         style="font-size:20px;font-style:normal;font-variant:normal;font-weight:normal;font-stretch:normal;fill:#000000;fill-opacity:1;stroke:none;font-family:Interstate Mono;-inkscape-font-specification:Interstate Mono"
         xml:space="preserve"><tspan
           y="353.41092"
           x="193.27603"
           id="tspan2886"
           sodipodi:role="line">ROS</tspan></text>
    </g>
  </g>
</svg>
